<?xml version="1.0" encoding="utf-8"?>
<!-- Generated by Mocodo 4.2.11 -->
<svg width="448" height="136" viewBox="0 0 448 136" xmlns="http://www.w3.org/2000/svg">
<rect x="0" y="0" width="448" height="136" fill="#ffffbf" stroke="none" stroke-width="0"/>

<!-- Association COME -->
<g>
	<line x1="222" y1="68" x2="125" y2="68" stroke="#f46d43" stroke-width="2"/>
	<line x1="38" y1="68" x2="125" y2="68" stroke="#f46d43" stroke-width="2"/>
	<g>
		<path d="M137 43 a14 14 90 0 1 14 14 V68 h-52 V57 a14 14 90 0 1 14 -14" fill="#fdae61" stroke="#fdae61" stroke-width="0"/>
		<path d="M151 68 v11 a14 14 90 0 1 -14 14 H113 a14 14 90 0 1 -14 -14 V68 H52" fill="#fee090" stroke="#fee090" stroke-width="0"/>
		<rect x="99" y="43" width="52" height="50" fill="none" rx="14" stroke="#f46d43" stroke-width="2"/>
		<line x1="99" y1="68" x2="151" y2="68" stroke="#f46d43" stroke-width="1"/>
		<text x="107" y="60.75" fill="#000000" font-family="Verdana" font-size="12">COME</text>
	</g>
	<text x="157" y="85" fill="#4575b4" font-family="Verdana" font-size="12">1,1</text>
	<text x="72" y="85" fill="#4575b4" font-family="Verdana" font-size="12">0,N</text>
</g>

<!-- Association TASTE -->
<g>
	<line x1="222" y1="68" x2="320" y2="68" stroke="#f46d43" stroke-width="2"/>
	<line x1="409" y1="68" x2="320" y2="68" stroke="#f46d43" stroke-width="2"/>
	<g>
		<path d="M333 43 a14 14 90 0 1 14 14 V68 h-54 V57 a14 14 90 0 1 14 -14" fill="#fdae61" stroke="#fdae61" stroke-width="0"/>
		<path d="M347 68 v11 a14 14 90 0 1 -14 14 H307 a14 14 90 0 1 -14 -14 V68 H54" fill="#fee090" stroke="#fee090" stroke-width="0"/>
		<rect x="293" y="43" width="54" height="50" fill="none" rx="14" stroke="#f46d43" stroke-width="2"/>
		<line x1="293" y1="68" x2="347" y2="68" stroke="#f46d43" stroke-width="1"/>
		<text x="300" y="60.75" fill="#000000" font-family="Verdana" font-size="12">TASTE</text>
	</g>
	<text x="266" y="85" fill="#4575b4" font-family="Verdana" font-size="12">1,1</text>
	<text x="352" y="85" fill="#4575b4" font-family="Verdana" font-size="12">0,N</text>
</g>

<!-- Entity ORIGIN -->
<g>
	<g>
		<rect x="9" y="43" width="58" height="25" fill="#abd9e9" stroke="none" stroke-width="0" opacity="1"/>
		<rect x="9" y="68" width="58" height="25" fill="#e0f3f8" stroke="none" stroke-width="0" opacity="1"/>
		<rect x="9" y="43" width="58" height="50" fill="none" stroke="#74add1" stroke-width="2" opacity="1"/>
		<line x1="9" y1="68" x2="67" y2="68" stroke="#74add1" stroke-width="1"/>
	</g>
	<text x="15" y="60.75" fill="#000000" font-family="Verdana" font-size="12">ORIGIN</text>
	<text x="14" y="85.8" fill="#000000" font-family="Verdana" font-size="12">name</text>
	<line x1="14" y1="88" x2="49" y2="88" stroke="#000000" stroke-width="1"/>
</g>

<!-- Entity COFFEE -->
<g>
	<g>
		<rect x="183" y="9" width="78" height="25" fill="#abd9e9" stroke="none" stroke-width="0" opacity="1"/>
		<rect x="183" y="34" width="78" height="93" fill="#e0f3f8" stroke="none" stroke-width="0" opacity="1"/>
		<rect x="183" y="9" width="78" height="118" fill="none" stroke="#74add1" stroke-width="2" opacity="1"/>
		<line x1="183" y1="34" x2="261" y2="34" stroke="#74add1" stroke-width="1"/>
	</g>
	<text x="198" y="26.75" fill="#000000" font-family="Verdana" font-size="12">COFFEE</text>
	<text x="188" y="51.8" fill="#000000" font-family="Verdana" font-size="12">name</text>
	<line x1="188" y1="54" x2="223" y2="54" stroke="#000000" stroke-width="1"/>
	<text x="188" y="68.8" fill="#000000" font-family="Verdana" font-size="12">reference</text>
	<text x="188" y="85.8" fill="#000000" font-family="Verdana" font-size="12">description</text>
	<text x="188" y="102.8" fill="#000000" font-family="Verdana" font-size="12">price</text>
	<text x="188" y="119.8" fill="#000000" font-family="Verdana" font-size="12">available</text>
</g>

<!-- Entity FLAVOR -->
<g>
	<g>
		<rect x="379" y="43" width="60" height="25" fill="#abd9e9" stroke="none" stroke-width="0" opacity="1"/>
		<rect x="379" y="68" width="60" height="25" fill="#e0f3f8" stroke="none" stroke-width="0" opacity="1"/>
		<rect x="379" y="43" width="60" height="50" fill="none" stroke="#74add1" stroke-width="2" opacity="1"/>
		<line x1="379" y1="68" x2="439" y2="68" stroke="#74add1" stroke-width="1"/>
	</g>
	<text x="385" y="60.75" fill="#000000" font-family="Verdana" font-size="12">FLAVOR</text>
	<text x="384" y="85.8" fill="#000000" font-family="Verdana" font-size="12">name</text>
	<line x1="384" y1="88" x2="419" y2="88" stroke="#000000" stroke-width="1"/>
</g>
</svg>